<svg width="30" height="30" viewBox="0 0 30 30" fill="none" xmlns="http://www.w3.org/2000/svg">
<path fill-rule="evenodd" clip-rule="evenodd" d="M22.1383 29.2774C20.0383 29.2001 14.0869 28.3776 7.85394 22.1461C1.62248 15.9132 0.801438 9.96323 0.722688 7.86177C0.606021 4.65927 3.05894 1.54864 5.89248 0.333851C6.2337 0.186511 6.60736 0.130414 6.97679 0.171065C7.34623 0.211716 7.69876 0.347718 7.99977 0.565726C10.3331 2.26614 11.9431 4.83864 13.3256 6.86135C13.6298 7.30575 13.7598 7.84652 13.691 8.38064C13.6222 8.91475 13.3592 9.40487 12.9523 9.7576L10.1071 11.8707C9.9696 11.97 9.87284 12.1158 9.83476 12.281C9.79667 12.4462 9.81985 12.6196 9.89998 12.7691C10.5446 13.9401 11.6908 15.6843 13.0033 16.9968C14.3173 18.3093 16.1431 19.5314 17.3958 20.2489C17.5529 20.337 17.7378 20.3617 17.9124 20.3177C18.0871 20.2738 18.2383 20.1646 18.335 20.0126L20.1871 17.1936C20.5276 16.7413 21.0299 16.4383 21.5888 16.3481C22.1477 16.2578 22.7198 16.3873 23.1854 16.7095C25.2373 18.1299 27.6319 19.7122 29.3848 21.9566C29.6205 22.2598 29.7704 22.6207 29.8189 23.0017C29.8674 23.3826 29.8126 23.7696 29.6604 24.1222C28.4398 26.9703 25.351 29.3955 22.1383 29.2774Z" fill="#F0EAD6"/>
</svg>
