<svg width="31" height="25" viewBox="0 0 31 25" fill="none" xmlns="http://www.w3.org/2000/svg">
<path d="M25.7084 0.833496H5.29169C4.13137 0.833496 3.01857 1.29443 2.19809 2.1149C1.37762 2.93538 0.916687 4.04817 0.916687 5.2085V19.7918C0.916687 20.9522 1.37762 22.0649 2.19809 22.8854C3.01857 23.7059 4.13137 24.1668 5.29169 24.1668H25.7084C26.8687 24.1668 27.9815 23.7059 28.8019 22.8854C29.6224 22.0649 30.0834 20.9522 30.0834 19.7918V5.2085C30.0834 4.04817 29.6224 2.93538 28.8019 2.1149C27.9815 1.29443 26.8687 0.833496 25.7084 0.833496ZM25.7084 3.75016L16.2292 10.2689C16.0075 10.3969 15.756 10.4643 15.5 10.4643C15.244 10.4643 14.9925 10.3969 14.7709 10.2689L5.29169 3.75016H25.7084Z" fill="#F0EAD6"/>
</svg>
