<svg width="30" height="30" viewBox="0 0 30 30" fill="none" xmlns="http://www.w3.org/2000/svg">
<path d="M23.801 4.7C22.4932 3.39937 21.7724 1.72905 21.773 0H15.861V20.6667C15.8154 21.785 15.2733 22.8444 14.349 23.6216C13.4247 24.3988 12.1903 24.8332 10.9056 24.8333C8.18878 24.8333 5.93112 22.9 5.93112 20.5C5.93112 17.6333 9.10714 15.4833 12.3788 16.3667V11.1C5.77806 10.3333 0 14.8 0 20.5C0 26.05 5.28061 30 10.8865 30C16.8941 30 21.773 25.75 21.773 20.5V10.0167C24.1703 11.5164 27.0485 12.3211 30 12.3167V7.16667C30 7.16667 26.4031 7.31667 23.801 4.7Z" fill="#F0EAD6"/>
</svg>
